<svg
  width="2469"
  height="388"
  viewBox="0 0 2469 388"
  fill="none"
  xmlns="http://www.w3.org/2000/svg"
  role="img"
  aria-labelledby="title desc"
  shape-rendering="geometricPrecision"
>
  <title id="title">nanobot README cover</title>
  <desc id="desc">nanobot. Your open-source agent. Everywhere you work.</desc>
  <metadata>
    Tagline outlines were created with Cascadia Mono, licensed under the SIL Open Font License 1.1.
    https://github.com/microsoft/cascadia-code
  </metadata>
  <g transform="translate(140 95) scale(0.9)">
      <g transform="translate(16 20) scale(0.2507)">
        <path d="M229.029 127.134C308.64 112.113 354.143 106.879 379.029 108.134V716.634L272.029 715.634C251.029 715.634 243.029 702.634 201.529 678.134L54.5291 581.634C30.0291 565.134 23.9802 560.075 13.0291 549.134C3.52914 537.634 -1.97086 526.634 3.52914 481.634L28.0291 340.634L29.5291 27.1337C31.0291 -2.36625 53.0291 -6.86625 77.0291 12.6337L229.029 127.134Z" fill="#F4A949" stroke="#F4A949"/>
        <path d="M529.842 126.817C450.231 111.796 404.728 106.562 379.842 107.817V716.317L486.842 715.317C509.342 714.317 570.342 661.817 611.842 637.317L704.342 581.317C728.842 564.817 734.891 559.759 745.842 548.817C755.342 537.317 760.842 526.317 755.342 481.317L730.842 340.317L729.342 26.817C727.842 -2.68287 705.842 -7.18287 681.842 12.3171L529.842 126.817Z" fill="#EF8E30" stroke="#EF8E30"/>
        <path d="M143.342 497.317H1.84164C-6.15857 550.317 22.8417 557.817 56.3419 582.817L143.342 497.317Z" fill="#E27223" stroke="#DF6E22"/>
        <path d="M615.342 496.817H757.001C765.002 549.817 735.842 557.317 702.342 582.317L615.342 496.817Z" fill="#D96016" stroke="#D45F16"/>
        <path d="M379.342 716.317V517.817H288.342C239.842 517.817 243.342 531.817 144.842 640.817L233.342 698.817C245.302 707.847 260.342 717.317 275.342 715.817L379.342 716.317Z" fill="#FBCB89" stroke="#FBCB8A"/>
        <path d="M566.842 382.817C561.842 348.817 509.842 341.317 501.342 382.817V439.317C509.842 477.317 559.342 478.317 566.842 439.317V382.817Z" fill="#B94D0B" stroke="#B5490B"/>
        <path d="M379.342 716.317V517.817H470.342C518.842 517.817 513.342 528.317 611.842 637.317L522.842 698.817C510.881 707.847 495.342 715.817 483.342 715.817L379.342 716.317Z" fill="#F7B066" stroke="#F8B166"/>
        <path d="M258.842 383.199C253.842 349.199 201.842 341.699 193.342 383.199V439.699C201.842 477.699 251.342 478.699 258.842 439.699V383.199Z" fill="#B94D0B" stroke="#B94D0B"/>
        <path d="M439.342 517.817H318.342L379.842 583.317L439.342 517.817Z" fill="#C85513" stroke="#C85513"/>
        <path d="M379.342 583.317V517.817H438.842L379.342 583.317Z" fill="#BA470A" stroke="#B94D0B"/>
        <path d="M367.842 304.817L339.842 109.817C369.864 107.082 387.219 106.437 420.842 109.817L391.342 304.817C382.555 322.184 376.628 321.255 367.842 304.817Z" fill="#D35E14" stroke="#D35E14"/>
        <path d="M446.412 112.822C473.271 116.662 491.893 119.703 529.928 126.325L530.604 126.442L530.284 127.05L529.842 126.817L530.283 127.051C530.283 127.051 530.282 127.054 530.281 127.055C530.279 127.059 530.276 127.064 530.273 127.071C530.265 127.085 530.254 127.107 530.239 127.135C530.209 127.193 530.164 127.279 530.105 127.391C529.986 127.617 529.81 127.951 529.581 128.387C529.122 129.261 528.449 130.543 527.59 132.177C525.872 135.444 523.413 140.12 520.448 145.753C514.519 157.018 506.565 172.113 498.471 187.426C490.377 202.738 482.142 218.27 475.65 230.412C469.165 242.538 464.401 251.316 463.262 253.088C460.97 256.653 457.712 259.067 454.529 259.067C451.263 259.067 448.386 256.547 446.859 250.949C446.467 249.511 446.169 246.271 445.938 241.776C445.705 237.256 445.537 231.406 445.42 224.701C445.186 211.289 445.154 194.441 445.217 177.94C445.279 161.438 445.436 145.281 445.576 133.249C445.647 127.233 445.713 122.248 445.762 118.767C445.786 117.027 445.806 115.662 445.82 114.733C445.827 114.268 445.832 113.912 445.836 113.673C445.838 113.553 445.839 113.462 445.84 113.401C445.84 113.371 445.841 113.348 445.841 113.333C445.841 113.325 445.842 113.319 445.842 113.315C445.842 113.313 445.842 113.311 445.842 113.31C445.845 113.31 445.882 113.31 446.342 113.317L445.842 113.309L445.851 112.742L446.412 112.822Z" fill="#D35E14" stroke="#D35C15"/>
        <path d="M311.842 251.317C314.842 240.317 313.842 112.817 313.842 112.817C281.05 117.181 262.657 120.321 229.842 126.817C229.842 126.817 291.842 246.317 296.342 253.317C300.842 260.317 308.842 262.317 311.842 251.317Z" fill="#DF6E23" stroke="#DA6D1F"/>
        <path d="M562.842 166.317L686.842 67.8171V278.317L562.842 166.317Z" fill="#D66114" stroke="#D86116"/>
        <path d="M196.342 166.317L72.3416 67.8171V278.317L196.342 166.317Z" fill="#E17125" stroke="#E27326"/>
        <path d="M752.342 465.817L625.342 432.817L737.497 377.487L752.342 465.817Z" fill="#D66015"/>
        <path d="M737.842 377.317L737.497 377.487M737.497 377.487L625.342 432.817L752.342 465.817L737.497 377.487Z" stroke="#D66115"/>
        <path d="M6.34164 464.817L134.342 432.004L21.3031 376.986L6.34164 464.817Z" fill="#E06B1F"/>
        <path d="M20.9558 376.817L21.3031 376.986M21.3031 376.986L134.342 432.004L6.34164 464.817L21.3031 376.986Z" stroke="#DF6E1E"/>
        <path d="M379.842 317.775C376.246 317.475 372.636 313.145 368.342 305.112L340.342 110.112C355.495 108.732 367.422 107.884 379.842 107.817V317.775Z" fill="#E16D22" stroke="#E27225"/>
      </g>
      <g
        fill="none"
        stroke="#B94D0B"
        stroke-width="26"
        stroke-linecap="round"
        stroke-linejoin="round"
      >
        <path d="M260 164V78M260 118C260 91 276 77 299 77C323 77 339 93 339 119V164"/>
        <path d="M450 164V78M450 121C450 95 433 77 408 77C383 77 366 95 366 121C366 146 383 164 408 164C433 164 450 146 450 121"/>
        <path d="M490 164V78M490 118C490 91 506 77 529 77C553 77 569 93 569 119V164"/>
        <path d="M686 121C686 147 670 164 644 164C618 164 602 147 602 121C602 94 618 77 644 77C670 77 686 94 686 121Z"/>
      </g>
      <g
        fill="none"
        stroke="#D96016"
        stroke-width="26"
        stroke-linecap="round"
        stroke-linejoin="round"
      >
        <path d="M730 34V164M731 121C731 94 747 77 773 77C799 77 815 94 815 121C815 147 799 164 773 164C747 164 731 147 731 121Z"/>
        <path d="M934 121C934 147 918 164 892 164C866 164 850 147 850 121C850 94 866 77 892 77C918 77 934 94 934 121Z"/>
        <path d="M1000 47V138C1000 156 1011 164 1028 164M969 78H1028"/>
      </g>
  </g>
  <path
    d="M515 474 25 1420H245L591 710H609L955 1420H1175L685 474ZM500 0V700H700V0ZM1980 -20Q1760 -20 1638.0 124.0Q1516 268 1516 530Q1516 793 1638.0 936.5Q1760 1080 1980 1080Q2201 1080 2322.5 936.5Q2444 793 2444 530Q2444 268 2322.5 124.0Q2201 -20 1980 -20ZM1980 170Q2097 170 2160.5 264.0Q2224 358 2224 530Q2224 703 2160.5 796.5Q2097 890 1980 890Q1863 890 1799.5 796.5Q1736 703 1736 530Q1736 358 1799.5 264.0Q1863 170 1980 170ZM3256 -20Q3089 -20 2997.5 79.5Q2906 179 2906 360V1060H3118V360Q3118 269 3170.0 219.5Q3222 170 3316 170Q3432 170 3491.0 243.5Q3550 317 3550 490L3604 204H3534Q3509 96 3436.0 38.0Q3363 -20 3256 -20ZM3568 -10 3550 244V430H3762V192L3908 170V0ZM3550 300V1060H3762V360ZM4668 456 4606 788H4688Q4706 1080 4980 1080Q5144 1080 5218.0 986.0Q5292 892 5292 682H5082Q5082 798 5047.5 849.0Q5013 900 4936 900Q4801 900 4734.5 784.5Q4668 669 4668 456ZM4220 0V174H4928V0ZM4456 0V1060H4628L4668 756V0ZM4260 886V1060H4614L4634 886ZM7500 -20Q7280 -20 7158.0 124.0Q7036 268 7036 530Q7036 793 7158.0 936.5Q7280 1080 7500 1080Q7721 1080 7842.5 936.5Q7964 793 7964 530Q7964 268 7842.5 124.0Q7721 -20 7500 -20ZM7500 170Q7617 170 7680.5 264.0Q7744 358 7744 530Q7744 703 7680.5 796.5Q7617 890 7500 890Q7383 890 7319.5 796.5Q7256 703 7256 530Q7256 358 7319.5 264.0Q7383 170 7500 170ZM8448 -460V1060H8640L8660 836V-460ZM8961 -20Q8839 -20 8764.5 36.0Q8690 92 8680 192H8588L8660 494Q8660 330 8724.5 245.0Q8789 160 8914 160Q9042 160 9108.0 251.0Q9174 342 9174 520Q9174 708 9108.0 804.0Q9042 900 8914 900Q8789 900 8724.5 815.0Q8660 730 8660 566L8588 868H8670Q8684 968 8760.5 1024.0Q8837 1080 8961 1080Q9170 1080 9277.0 938.0Q9384 796 9384 520Q9384 254 9277.0 117.0Q9170 -20 8961 -20ZM10362 -20Q10091 -20 9943.5 122.5Q9796 265 9796 532Q9796 792 9921.0 936.0Q10046 1080 10274 1080Q10489 1080 10606.5 950.0Q10724 820 10724 572Q10724 499 10718 436H9974V598H10532Q10532 741 10464.0 817.5Q10396 894 10276 894Q10141 894 10066.5 802.0Q9992 710 9992 542Q9992 358 10094.5 262.0Q10197 166 10386 166Q10452 166 10516.0 173.5Q10580 181 10646 194L10672 8Q10578 -10 10500.0 -15.0Q10422 -20 10362 -20ZM11860 0V690Q11860 786 11810.0 838.0Q11760 890 11670 890Q11420 890 11420 596L11358 868H11440Q11449 975 11518.0 1027.5Q11587 1080 11720 1080Q11888 1080 11980.0 978.0Q12072 876 12072 690V0ZM11208 0V1060H11400L11420 836V0ZM12520 616V802H13520V616ZM14318 -20Q14198 -20 14112.5 -13.0Q14027 -6 13956 10L13980 202Q14085 186 14165.5 178.0Q14246 170 14318 170Q14479 170 14551.5 201.5Q14624 233 14624 302Q14624 350 14598.5 373.5Q14573 397 14520 410L14276 472Q14119 512 14045.5 571.0Q13972 630 13972 750Q13972 924 14105.5 1002.0Q14239 1080 14536 1080Q14613 1080 14679.5 1075.5Q14746 1071 14816 1060L14794 876Q14713 884 14651.0 887.0Q14589 890 14530 890Q14352 890 14272.0 859.5Q14192 829 14192 760Q14192 714 14225.0 693.5Q14258 673 14326 656L14522 608Q14689 568 14766.5 501.0Q14844 434 14844 306Q14844 135 14719.0 57.5Q14594 -20 14318 -20ZM15780 -20Q15560 -20 15438.0 124.0Q15316 268 15316 530Q15316 793 15438.0 936.5Q15560 1080 15780 1080Q16001 1080 16122.5 936.5Q16244 793 16244 530Q16244 268 16122.5 124.0Q16001 -20 15780 -20ZM15780 170Q15897 170 15960.5 264.0Q16024 358 16024 530Q16024 703 15960.5 796.5Q15897 890 15780 890Q15663 890 15599.5 796.5Q15536 703 15536 530Q15536 358 15599.5 264.0Q15663 170 15780 170ZM17056 -20Q16889 -20 16797.5 79.5Q16706 179 16706 360V1060H16918V360Q16918 269 16970.0 219.5Q17022 170 17116 170Q17232 170 17291.0 243.5Q17350 317 17350 490L17404 204H17334Q17309 96 17236.0 38.0Q17163 -20 17056 -20ZM17368 -10 17350 244V430H17562V192L17708 170V0ZM17350 300V1060H17562V360ZM18468 456 18406 788H18488Q18506 1080 18780 1080Q18944 1080 19018.0 986.0Q19092 892 19092 682H18882Q18882 798 18847.5 849.0Q18813 900 18736 900Q18601 900 18534.5 784.5Q18468 669 18468 456ZM18020 0V174H18728V0ZM18256 0V1060H18428L18468 756V0ZM18060 886V1060H18414L18434 886ZM20022 -20Q19751 -20 19603.5 122.5Q19456 265 19456 532Q19456 792 19595.5 936.0Q19735 1080 19994 1080Q20149 1080 20259.5 1022.5Q20370 965 20417 860L20254 737Q20209 810 20139.0 850.0Q20069 890 19986 890Q19836 890 19753.0 799.5Q19670 709 19670 542Q19670 361 19767.5 265.5Q19865 170 20046 170Q20120 170 20194.0 177.0Q20268 184 20338 196L20362 10Q20280 -8 20192.5 -14.0Q20105 -20 20022 -20ZM21402 -20Q21131 -20 20983.5 122.5Q20836 265 20836 532Q20836 792 20961.0 936.0Q21086 1080 21314 1080Q21529 1080 21646.5 950.0Q21764 820 21764 572Q21764 499 21758 436H21014V598H21572Q21572 741 21504.0 817.5Q21436 894 21316 894Q21181 894 21106.5 802.0Q21032 710 21032 542Q21032 358 21134.5 262.0Q21237 166 21426 166Q21492 166 21556.0 173.5Q21620 181 21686 194L21712 8Q21618 -10 21540.0 -15.0Q21462 -20 21402 -20ZM24278 -10 24264 304 24236 392V666Q24236 772 24161.5 821.5Q24087 871 23940 875L23686 882L23706 1070L23920 1067Q24183 1063 24310.5 953.5Q24438 844 24438 634V192L24618 170V0ZM23904 -20Q23738 -20 23647.0 60.0Q23556 140 23556 286Q23556 454 23681.5 544.0Q23807 634 24036 634Q24131 634 24205.5 622.5Q24280 611 24338 588L24294 444Q24227 459 24163.0 461.5Q24099 464 24032 464Q23756 464 23756 296Q23756 226 23803.5 188.0Q23851 150 23938 150Q24037 150 24103.5 184.0Q24170 218 24203.0 271.0Q24236 324 24236 380V496L24298 224H24214L24248 256Q24248 164 24205.5 102.5Q24163 41 24086.0 10.5Q24009 -20 23904 -20ZM25022 -478 25012 -284 25352 -274Q25513 -269 25586.0 -185.0Q25659 -101 25660 62V836L25680 1060H25872V94Q25872 -189 25743.0 -324.0Q25614 -459 25332 -468ZM25359 -20Q25151 -20 25043.5 117.0Q24936 254 24936 520Q24936 796 25043.5 938.0Q25151 1080 25359 1080Q25483 1080 25560.0 1024.0Q25637 968 25650 868H25732L25660 566Q25660 730 25595.5 815.0Q25531 900 25406 900Q25278 900 25212.0 804.0Q25146 708 25146 520Q25146 342 25212.0 251.0Q25278 160 25406 160Q25531 160 25595.5 245.0Q25660 330 25660 494L25732 192H25640Q25630 92 25555.5 36.0Q25481 -20 25359 -20ZM26922 -20Q26651 -20 26503.5 122.5Q26356 265 26356 532Q26356 792 26481.0 936.0Q26606 1080 26834 1080Q27049 1080 27166.5 950.0Q27284 820 27284 572Q27284 499 27278 436H26534V598H27092Q27092 741 27024.0 817.5Q26956 894 26836 894Q26701 894 26626.5 802.0Q26552 710 26552 542Q26552 358 26654.5 262.0Q26757 166 26946 166Q27012 166 27076.0 173.5Q27140 181 27206 194L27232 8Q27138 -10 27060.0 -15.0Q26982 -20 26922 -20ZM28420 0V690Q28420 786 28370.0 838.0Q28320 890 28230 890Q27980 890 27980 596L27918 868H28000Q28009 975 28078.0 1027.5Q28147 1080 28280 1080Q28448 1080 28540.0 978.0Q28632 876 28632 690V0ZM27768 0V1060H27960L27980 836V0ZM29772 -20Q29531 -20 29423.5 80.0Q29316 180 29316 400V580H29528V410Q29528 284 29589.5 227.0Q29651 170 29792 170Q29842 170 29898.0 175.5Q29954 181 30026 190L30050 4Q29980 -8 29913.5 -14.0Q29847 -20 29772 -20ZM29316 500V1380H29528V500ZM29050 886V1060H30010V886ZM30960 -20Q30899 -20 30855.5 23.5Q30812 67 30812 128Q30812 190 30855.5 233.0Q30899 276 30960 276Q31022 276 31065.0 233.0Q31108 190 31108 128Q31108 67 31065.0 23.5Q31022 -20 30960 -20Z"
    fill="#B8AAA2"
    transform="translate(1389.299 157) scale(0.02805392 -0.02805392)"
  />
  <path
    d="M150 0V1420H388V0ZM150 0V222H1110V0ZM150 600V822H930V600ZM150 1198V1420H1110V1198ZM1639 0 1270 1060H1526L1791 215H1809L2074 1060H2330L1961 0ZM3097 -20Q2824 -20 2675.0 122.5Q2526 265 2526 532Q2526 792 2652.5 936.0Q2779 1080 3009 1080Q3231 1080 3352.5 948.0Q3474 816 3474 565Q3474 492 3468 428H2704V606H3238Q3238 727 3178.0 792.0Q3118 857 3011 857Q2894 857 2829.0 775.0Q2764 693 2764 542Q2764 379 2857.0 293.5Q2950 208 3121 208Q3191 208 3258.5 215.5Q3326 223 3396 236L3422 8Q3324 -10 3242.0 -15.0Q3160 -20 3097 -20ZM4145 456 4083 808H4171Q4188 1080 4450 1080Q4606 1080 4684.0 976.0Q4762 872 4762 662H4517Q4517 765 4482.5 810.0Q4448 855 4371 855Q4257 855 4201.0 751.0Q4145 647 4145 456ZM3670 0V209H4398V0ZM3899 0V1060H4105L4145 756V0ZM3710 851V1060H4091L4111 851ZM4865 -480 4855 -263 5031 -243Q5129 -231 5199.0 -190.0Q5269 -149 5319.0 -68.0Q5369 13 5406 144L5665 1060H5925L5624 94Q5564 -97 5487.5 -213.0Q5411 -329 5306.0 -387.0Q5201 -445 5055 -460ZM5227 0 4845 1060H5105L5401 202H5443V0ZM6710 0 6596 816H6580L6493 1060H6687L6810 215H6828L6903 1060H7140L7020 0ZM6150 0 6060 1060H6298L6352 215H6370L6493 1060H6687L6598 816H6584L6470 0ZM7995 0V660Q7995 754 7951.0 804.5Q7907 855 7827 855Q7605 855 7605 566L7543 868H7629Q7641 975 7703.5 1027.5Q7766 1080 7890 1080Q8058 1080 8150.0 978.0Q8242 876 8242 690V0ZM7358 0V1500H7605V0ZM9097 -20Q8824 -20 8675.0 122.5Q8526 265 8526 532Q8526 792 8652.5 936.0Q8779 1080 9009 1080Q9231 1080 9352.5 948.0Q9474 816 9474 565Q9474 492 9468 428H8704V606H9238Q9238 727 9178.0 792.0Q9118 857 9011 857Q8894 857 8829.0 775.0Q8764 693 8764 542Q8764 379 8857.0 293.5Q8950 208 9121 208Q9191 208 9258.5 215.5Q9326 223 9396 236L9422 8Q9324 -10 9242.0 -15.0Q9160 -20 9097 -20ZM10145 456 10083 808H10171Q10188 1080 10450 1080Q10606 1080 10684.0 976.0Q10762 872 10762 662H10517Q10517 765 10482.5 810.0Q10448 855 10371 855Q10257 855 10201.0 751.0Q10145 647 10145 456ZM9670 0V209H10398V0ZM9899 0V1060H10105L10145 756V0ZM9710 851V1060H10091L10111 851ZM11497 -20Q11224 -20 11075.0 122.5Q10926 265 10926 532Q10926 792 11052.5 936.0Q11179 1080 11409 1080Q11631 1080 11752.5 948.0Q11874 816 11874 565Q11874 492 11868 428H11104V606H11638Q11638 727 11578.0 792.0Q11518 857 11411 857Q11294 857 11229.0 775.0Q11164 693 11164 542Q11164 379 11257.0 293.5Q11350 208 11521 208Q11591 208 11658.5 215.5Q11726 223 11796 236L11822 8Q11724 -10 11642.0 -15.0Q11560 -20 11497 -20Z"
    fill="#F4A949"
    transform="translate(1384.287 254) scale(0.03808594 -0.03808594)"
  />
  <path
    d="M65 -480 55 -263 231 -243Q329 -231 399.0 -190.0Q469 -149 519.0 -68.0Q569 13 606 144L865 1060H1125L824 94Q764 -97 687.5 -213.0Q611 -329 506.0 -387.0Q401 -445 255 -460ZM427 0 45 1060H305L601 202H643V0ZM1800 -20Q1575 -20 1450.5 124.0Q1326 268 1326 530Q1326 793 1450.5 936.5Q1575 1080 1800 1080Q2026 1080 2150.0 936.5Q2274 793 2274 530Q2274 268 2150.0 124.0Q2026 -20 1800 -20ZM1800 210Q1903 210 1958.5 293.5Q2014 377 2014 530Q2014 684 1958.5 767.0Q1903 850 1800 850Q1698 850 1642.0 767.0Q1586 684 1586 530Q1586 377 1642.0 293.5Q1698 210 1800 210ZM2866 -20Q2708 -20 2622.0 79.5Q2536 179 2536 360V1060H2783V400Q2783 309 2829.0 259.5Q2875 210 2956 210Q3060 210 3112.5 283.5Q3165 357 3165 530L3219 204H3142Q3117 96 3044.5 38.0Q2972 -20 2866 -20ZM3183 -10 3165 244V430H3412V222L3558 200V0ZM3165 300V1060H3412V360ZM5510 0 5396 816H5380L5293 1060H5487L5610 215H5628L5703 1060H5940L5820 0ZM4950 0 4860 1060H5098L5152 215H5170L5293 1060H5487L5398 816H5384L5270 0ZM6600 -20Q6375 -20 6250.5 124.0Q6126 268 6126 530Q6126 793 6250.5 936.5Q6375 1080 6600 1080Q6826 1080 6950.0 936.5Q7074 793 7074 530Q7074 268 6950.0 124.0Q6826 -20 6600 -20ZM6600 210Q6703 210 6758.5 293.5Q6814 377 6814 530Q6814 684 6758.5 767.0Q6703 850 6600 850Q6498 850 6442.0 767.0Q6386 684 6386 530Q6386 377 6442.0 293.5Q6498 210 6600 210ZM7745 456 7683 808H7771Q7788 1080 8050 1080Q8206 1080 8284.0 976.0Q8362 872 8362 662H8117Q8117 765 8082.5 810.0Q8048 855 7971 855Q7857 855 7801.0 751.0Q7745 647 7745 456ZM7270 0V209H7998V0ZM7499 0V1060H7705L7745 756V0ZM7310 851V1060H7691L7711 851ZM8710 387V617H8830Q8954 617 9034.0 660.0Q9114 703 9160.0 800.5Q9206 898 9227 1060H9482Q9440 721 9290.5 554.0Q9141 387 8880 387ZM8550 0V1500H8797V0ZM9253 0 8976 516 9201 598 9550 0ZM10200 -20Q10130 -20 10081.0 29.5Q10032 79 10032 148Q10032 219 10081.0 268.0Q10130 317 10200 317Q10271 317 10319.5 268.0Q10368 219 10368 148Q10368 79 10319.5 29.5Q10271 -20 10200 -20Z"
    fill="#F7F2EE"
    transform="translate(1866.806 254) scale(0.03808594 -0.03808594)"
  />
</svg>
